<?xml version="1.0" encoding="UTF-8" standalone="no"?>
<!-- Created with Inkscape (http://www.inkscape.org/) -->

<svg
   width="256"
   height="256"
   viewBox="0 0 67.733332 67.733333"
   version="1.1"
   id="svg1"
   xml:space="preserve"
   inkscape:version="1.3.2 (091e20e, 2023-11-25, custom)"
   sodipodi:docname="logo.svg"
   xmlns:inkscape="http://www.inkscape.org/namespaces/inkscape"
   xmlns:sodipodi="http://sodipodi.sourceforge.net/DTD/sodipodi-0.dtd"
   xmlns="http://www.w3.org/2000/svg"
   xmlns:svg="http://www.w3.org/2000/svg"><sodipodi:namedview
     id="namedview1"
     pagecolor="#ffffff"
     bordercolor="#000000"
     borderopacity="0.25"
     inkscape:showpageshadow="2"
     inkscape:pageopacity="0.0"
     inkscape:pagecheckerboard="0"
     inkscape:deskcolor="#d1d1d1"
     inkscape:document-units="px"
     showguides="true"
     inkscape:zoom="0.72426347"
     inkscape:cx="410.76212"
     inkscape:cy="71.106721"
     inkscape:window-width="1920"
     inkscape:window-height="1009"
     inkscape:window-x="1912"
     inkscape:window-y="-8"
     inkscape:window-maximized="1"
     inkscape:current-layer="layer1" /><defs
     id="defs1" /><g
     inkscape:label="Capa 1"
     inkscape:groupmode="layer"
     id="layer1"><g
       id="g20"
       transform="matrix(1.0001069,0,0,1.0001069,-91.688997,55.925748)"><g
         id="g18"
         transform="rotate(-90,155.5187,-25.9433)"><rect
           style="fill:#19bca9;fill-opacity:1;stroke-width:0.365405"
           id="rect1"
           width="23.944792"
           height="23.944792"
           x="127.68733"
           y="-79.864563"
           ry="0"
           rx="0" /><rect
           style="fill:#2a8683;fill-opacity:1;stroke-width:0.365405"
           id="rect1-5"
           width="23.944792"
           height="23.944792"
           x="151.63213"
           y="-79.864563"
           ry="0" /><rect
           style="fill:#127793;fill-opacity:1;stroke-width:0.365405"
           id="rect1-3"
           width="23.944792"
           height="23.944792"
           x="127.68733"
           y="-55.919765"
           ry="0" /><rect
           style="fill:#48c086;fill-opacity:1;stroke-width:0.365405"
           id="rect1-58"
           width="23.944792"
           height="23.944792"
           x="151.63213"
           y="-55.919765"
           ry="0" /></g><g
         id="g17"
         transform="rotate(-45,80.071686,25.226639)"><path
           id="rect1-7"
           style="fill:#127793;fill-opacity:1;stroke-width:0.365405"
           d="m 128.98986,23.944789 h 16.66875 v 16.66875 c 0,3.623032 -3.62303,7.27604 -7.27604,7.27604 l -16.66875,1e-6 V 31.220829 c 0,-3.638021 3.653,-7.27604 7.27604,-7.27604 z"
           sodipodi:nodetypes="scsscss" /><path
           id="rect1-7-4"
           style="fill:#48c086;fill-opacity:1;stroke-width:0.365405"
           d="m 169.6034,31.22083 v 16.668749 h -16.66875 c -3.62303,0 -7.27604,-3.62303 -7.27604,-7.27604 v -16.66875 h 16.66875 c 3.63802,0 7.27604,3.65301 7.27604,7.276041 z"
           sodipodi:nodetypes="scsscss" /><path
           id="rect1-7-7"
           style="fill:#2a8683;fill-opacity:1;stroke-width:0.365405"
           d="m 152.93465,0 h 16.66875 v 16.668751 c 0,3.623032 -3.62303,7.27604 -7.27604,7.27604 l -16.66875,1e-6 V 7.276041 C 145.65861,3.63802 149.31162,-9.999998e-7 152.93465,0 Z"
           sodipodi:nodetypes="scsscss" /><path
           id="rect1-7-73"
           style="fill:#19bca9;stroke-width:0.365405"
           d="m 145.65861,7.276043 v 16.668746 h -16.66875 c -3.62303,0 -7.27604,-3.623029 -7.27604,-7.276036 V 2.0000002e-6 h 16.66875 c 3.63802,0 7.27604,3.6530009999998 7.27604,7.2760409999998 z"
           sodipodi:nodetypes="scsscss" /></g><g
         id="g19"
         transform="translate(25.082921,-104.34214)"><rect
           style="fill:#ffffff;fill-opacity:1;stroke-width:0.269495"
           id="rect18"
           width="10.583333"
           height="29.104166"
           x="95.167641"
           y="67.73333" /><rect
           style="fill:#ffffff;fill-opacity:1;stroke-width:0.269495"
           id="rect18-7"
           width="10.583333"
           height="29.104166"
           x="76.993744"
           y="-115.01139"
           transform="rotate(90)" /></g></g></g></svg>
